<mxfile host="Electron" modified="2023-06-19T07:16:28.628Z" agent="Mozilla/5.0 (Windows NT 10.0; Win64; x64) AppleWebKit/537.36 (KHTML, like Gecko) draw.io/21.4.0 Chrome/112.0.5615.204 Electron/24.5.1 Safari/537.36" etag="-tQF7zA89LDw7ZTM0mFm" version="21.4.0" type="device">
  <diagram name="페이지-1" id="9Aw0KixXEMMjFlBxb9bF">
    <mxGraphModel dx="1420" dy="830" grid="1" gridSize="10" guides="1" tooltips="1" connect="1" arrows="1" fold="1" page="1" pageScale="1" pageWidth="1169" pageHeight="827" math="0" shadow="0">
      <root>
        <mxCell id="0" />
        <mxCell id="1" parent="0" />
        <mxCell id="InStL-5V9zZlg6Y9DEVj-8" value="" style="sketch=0;outlineConnect=0;fontColor=#232F3E;gradientColor=none;fillColor=#4D4D4D;strokeColor=none;dashed=0;verticalLabelPosition=bottom;verticalAlign=top;align=center;html=1;fontSize=12;fontStyle=0;aspect=fixed;pointerEvents=1;shape=mxgraph.aws4.servers;" vertex="1" parent="1">
          <mxGeometry x="240" y="80" width="40" height="40" as="geometry" />
        </mxCell>
        <mxCell id="InStL-5V9zZlg6Y9DEVj-13" value="" style="sketch=0;pointerEvents=1;shadow=0;dashed=0;html=1;strokeColor=none;fillColor=#505050;labelPosition=center;verticalLabelPosition=bottom;verticalAlign=top;outlineConnect=0;align=center;shape=mxgraph.office.devices.lcd_monitor;" vertex="1" parent="1">
          <mxGeometry x="240" y="200" width="40" height="40" as="geometry" />
        </mxCell>
        <mxCell id="InStL-5V9zZlg6Y9DEVj-18" value="" style="sketch=0;pointerEvents=1;shadow=0;dashed=0;html=1;strokeColor=none;fillColor=#505050;labelPosition=center;verticalLabelPosition=bottom;verticalAlign=top;outlineConnect=0;align=center;shape=mxgraph.office.devices.lcd_monitor;" vertex="1" parent="1">
          <mxGeometry x="240" y="320" width="40" height="40" as="geometry" />
        </mxCell>
        <mxCell id="InStL-5V9zZlg6Y9DEVj-1" value="181b1f" style="rounded=0;whiteSpace=wrap;html=1;fillColor=#181B1F;fontColor=#FFFFFF;strokeColor=none;" vertex="1" parent="1">
          <mxGeometry x="1030" y="110" width="60" height="30" as="geometry" />
        </mxCell>
        <mxCell id="InStL-5V9zZlg6Y9DEVj-2" value="111217" style="rounded=0;whiteSpace=wrap;html=1;fillColor=#111217;fontColor=#FFFFFF;strokeColor=none;" vertex="1" parent="1">
          <mxGeometry x="1030" y="70" width="60" height="30" as="geometry" />
        </mxCell>
        <mxCell id="InStL-5V9zZlg6Y9DEVj-4" value="SOAP" style="text;html=1;strokeColor=none;fillColor=none;align=center;verticalAlign=middle;whiteSpace=wrap;rounded=0;fontSize=16;fontStyle=1;fontColor=#4D4D4D;" vertex="1" parent="1">
          <mxGeometry x="80" y="80" width="120" height="40" as="geometry" />
        </mxCell>
        <mxCell id="InStL-5V9zZlg6Y9DEVj-9" value="" style="sketch=0;outlineConnect=0;fontColor=#232F3E;gradientColor=none;fillColor=#4D4D4D;strokeColor=none;dashed=0;verticalLabelPosition=bottom;verticalAlign=top;align=center;html=1;fontSize=12;fontStyle=0;aspect=fixed;pointerEvents=1;shape=mxgraph.aws4.servers;" vertex="1" parent="1">
          <mxGeometry x="600" y="80" width="40" height="40" as="geometry" />
        </mxCell>
        <mxCell id="InStL-5V9zZlg6Y9DEVj-10" value="" style="endArrow=classic;html=1;rounded=0;startArrow=oval;startFill=1;endSize=4;startSize=4;strokeColor=#4D4D4D;" edge="1" parent="1" source="InStL-5V9zZlg6Y9DEVj-8" target="InStL-5V9zZlg6Y9DEVj-9">
          <mxGeometry width="50" height="50" relative="1" as="geometry">
            <mxPoint x="290" y="100" as="sourcePoint" />
            <mxPoint x="650" y="180" as="targetPoint" />
          </mxGeometry>
        </mxCell>
        <mxCell id="InStL-5V9zZlg6Y9DEVj-5" value="" style="rounded=1;whiteSpace=wrap;html=1;fillColor=#2FEDBB;strokeColor=none;" vertex="1" parent="1">
          <mxGeometry x="400" y="55" width="80" height="90" as="geometry" />
        </mxCell>
        <mxCell id="InStL-5V9zZlg6Y9DEVj-6" value="XML" style="rounded=1;whiteSpace=wrap;html=1;fillColor=#ffcd28;strokeColor=none;gradientColor=none;fontStyle=0;fontSize=14;arcSize=25;" vertex="1" parent="1">
          <mxGeometry x="410" y="95" width="60" height="40" as="geometry" />
        </mxCell>
        <mxCell id="InStL-5V9zZlg6Y9DEVj-7" value="" style="rounded=1;whiteSpace=wrap;html=1;fillColor=#FFA500;strokeColor=none;gradientColor=none;fontStyle=0;fontSize=14;arcSize=50;" vertex="1" parent="1">
          <mxGeometry x="410" y="65" width="60" height="20" as="geometry" />
        </mxCell>
        <mxCell id="InStL-5V9zZlg6Y9DEVj-12" value="RESTful" style="text;html=1;strokeColor=none;fillColor=none;align=center;verticalAlign=middle;whiteSpace=wrap;rounded=0;fontSize=16;fontStyle=1;fontColor=#4D4D4D;" vertex="1" parent="1">
          <mxGeometry x="80" y="200" width="120" height="40" as="geometry" />
        </mxCell>
        <mxCell id="InStL-5V9zZlg6Y9DEVj-15" value="" style="sketch=0;outlineConnect=0;fontColor=#232F3E;gradientColor=none;fillColor=#4D4D4D;strokeColor=none;dashed=0;verticalLabelPosition=bottom;verticalAlign=top;align=center;html=1;fontSize=12;fontStyle=0;aspect=fixed;pointerEvents=1;shape=mxgraph.aws4.servers;" vertex="1" parent="1">
          <mxGeometry x="600" y="200" width="40" height="40" as="geometry" />
        </mxCell>
        <mxCell id="InStL-5V9zZlg6Y9DEVj-16" value="" style="endArrow=classic;html=1;rounded=0;startArrow=oval;startFill=1;endSize=4;startSize=4;strokeColor=#4D4D4D;" edge="1" parent="1" source="InStL-5V9zZlg6Y9DEVj-13" target="InStL-5V9zZlg6Y9DEVj-15">
          <mxGeometry width="50" height="50" relative="1" as="geometry">
            <mxPoint x="290" y="220" as="sourcePoint" />
            <mxPoint x="590" y="220" as="targetPoint" />
          </mxGeometry>
        </mxCell>
        <mxCell id="InStL-5V9zZlg6Y9DEVj-14" value="Resource" style="rounded=1;whiteSpace=wrap;html=1;fillColor=#2FEDBB;strokeColor=none;fontSize=14;fontStyle=1" vertex="1" parent="1">
          <mxGeometry x="390" y="175" width="100" height="90" as="geometry" />
        </mxCell>
        <mxCell id="InStL-5V9zZlg6Y9DEVj-17" value="GraphQL" style="text;html=1;strokeColor=none;fillColor=none;align=center;verticalAlign=middle;whiteSpace=wrap;rounded=0;fontSize=16;fontStyle=1;fontColor=#4D4D4D;" vertex="1" parent="1">
          <mxGeometry x="80" y="320" width="120" height="40" as="geometry" />
        </mxCell>
        <mxCell id="InStL-5V9zZlg6Y9DEVj-24" value="" style="sketch=0;outlineConnect=0;fontColor=#232F3E;gradientColor=none;fillColor=#4D4D4D;strokeColor=none;dashed=0;verticalLabelPosition=bottom;verticalAlign=top;align=center;html=1;fontSize=12;fontStyle=0;aspect=fixed;pointerEvents=1;shape=mxgraph.aws4.servers;" vertex="1" parent="1">
          <mxGeometry x="500" y="320" width="40" height="40" as="geometry" />
        </mxCell>
        <mxCell id="InStL-5V9zZlg6Y9DEVj-25" value="" style="sketch=0;outlineConnect=0;fontColor=#232F3E;gradientColor=none;fillColor=#4D4D4D;strokeColor=none;dashed=0;verticalLabelPosition=bottom;verticalAlign=top;align=center;html=1;fontSize=12;fontStyle=0;aspect=fixed;pointerEvents=1;shape=mxgraph.aws4.servers;" vertex="1" parent="1">
          <mxGeometry x="619" y="299" width="21" height="21" as="geometry" />
        </mxCell>
        <mxCell id="InStL-5V9zZlg6Y9DEVj-26" value="" style="sketch=0;outlineConnect=0;fontColor=#232F3E;gradientColor=none;fillColor=#4D4D4D;strokeColor=none;dashed=0;verticalLabelPosition=bottom;verticalAlign=top;align=center;html=1;fontSize=12;fontStyle=0;aspect=fixed;pointerEvents=1;shape=mxgraph.aws4.servers;" vertex="1" parent="1">
          <mxGeometry x="619" y="360" width="21" height="21" as="geometry" />
        </mxCell>
        <mxCell id="InStL-5V9zZlg6Y9DEVj-27" value="" style="sketch=0;outlineConnect=0;fontColor=#232F3E;gradientColor=none;fillColor=#4D4D4D;strokeColor=none;dashed=0;verticalLabelPosition=bottom;verticalAlign=top;align=center;html=1;fontSize=12;fontStyle=0;aspect=fixed;pointerEvents=1;shape=mxgraph.aws4.servers;" vertex="1" parent="1">
          <mxGeometry x="619" y="329.5" width="21" height="21" as="geometry" />
        </mxCell>
        <mxCell id="InStL-5V9zZlg6Y9DEVj-29" value="" style="endArrow=classic;html=1;rounded=0;startArrow=oval;startFill=1;endSize=4;startSize=4;strokeColor=#4D4D4D;" edge="1" parent="1" source="InStL-5V9zZlg6Y9DEVj-18" target="InStL-5V9zZlg6Y9DEVj-24">
          <mxGeometry width="50" height="50" relative="1" as="geometry">
            <mxPoint x="290" y="339.5" as="sourcePoint" />
            <mxPoint x="610" y="339.5" as="targetPoint" />
          </mxGeometry>
        </mxCell>
        <mxCell id="InStL-5V9zZlg6Y9DEVj-19" value="" style="rounded=1;whiteSpace=wrap;html=1;fillColor=#2FEDBB;strokeColor=none;fontSize=14;fontStyle=1" vertex="1" parent="1">
          <mxGeometry x="340" y="295" width="100" height="90" as="geometry" />
        </mxCell>
        <mxCell id="InStL-5V9zZlg6Y9DEVj-20" value="" style="rounded=1;whiteSpace=wrap;html=1;fillColor=#FFA500;strokeColor=none;gradientColor=none;fontStyle=0;fontSize=14;arcSize=50;" vertex="1" parent="1">
          <mxGeometry x="350" y="305" width="60" height="10" as="geometry" />
        </mxCell>
        <mxCell id="InStL-5V9zZlg6Y9DEVj-21" value="" style="rounded=1;whiteSpace=wrap;html=1;fillColor=#FFA500;strokeColor=none;gradientColor=none;fontStyle=0;fontSize=14;arcSize=50;" vertex="1" parent="1">
          <mxGeometry x="370" y="325" width="60" height="10" as="geometry" />
        </mxCell>
        <mxCell id="InStL-5V9zZlg6Y9DEVj-22" value="" style="rounded=1;whiteSpace=wrap;html=1;fillColor=#FFA500;strokeColor=none;gradientColor=none;fontStyle=0;fontSize=14;arcSize=50;" vertex="1" parent="1">
          <mxGeometry x="350" y="345" width="60" height="10" as="geometry" />
        </mxCell>
        <mxCell id="InStL-5V9zZlg6Y9DEVj-23" value="" style="rounded=1;whiteSpace=wrap;html=1;fillColor=#FFA500;strokeColor=none;gradientColor=none;fontStyle=0;fontSize=14;arcSize=50;" vertex="1" parent="1">
          <mxGeometry x="370" y="365" width="60" height="10" as="geometry" />
        </mxCell>
        <mxCell id="InStL-5V9zZlg6Y9DEVj-30" value="" style="endArrow=classic;html=1;rounded=0;startArrow=oval;startFill=1;endSize=3;startSize=3;strokeColor=#4D4D4D;" edge="1" parent="1" target="InStL-5V9zZlg6Y9DEVj-26">
          <mxGeometry width="50" height="50" relative="1" as="geometry">
            <mxPoint x="540" y="350.22" as="sourcePoint" />
            <mxPoint x="580" y="350.22" as="targetPoint" />
          </mxGeometry>
        </mxCell>
        <mxCell id="InStL-5V9zZlg6Y9DEVj-31" value="" style="endArrow=classic;html=1;rounded=0;startArrow=oval;startFill=1;endSize=3;startSize=3;strokeColor=#4D4D4D;" edge="1" parent="1" target="InStL-5V9zZlg6Y9DEVj-27">
          <mxGeometry width="50" height="50" relative="1" as="geometry">
            <mxPoint x="540" y="339.58000000000004" as="sourcePoint" />
            <mxPoint x="580" y="339.58000000000004" as="targetPoint" />
          </mxGeometry>
        </mxCell>
        <mxCell id="InStL-5V9zZlg6Y9DEVj-32" value="" style="endArrow=classic;html=1;rounded=0;startArrow=oval;startFill=1;endSize=3;startSize=3;strokeColor=#4D4D4D;" edge="1" parent="1" target="InStL-5V9zZlg6Y9DEVj-25">
          <mxGeometry width="50" height="50" relative="1" as="geometry">
            <mxPoint x="540" y="329.22" as="sourcePoint" />
            <mxPoint x="580" y="329.22" as="targetPoint" />
          </mxGeometry>
        </mxCell>
      </root>
    </mxGraphModel>
  </diagram>
</mxfile>
